# AST/ASF file generated using VICON BodyLanguage
# -----------------------------------------------
:version 1.10
:name VICON
:units
  mass 1.0
  length 0.45
  angle deg
:documentation
   .ast/.asf automatically generated from VICON data using
   VICON BodyBuilder and BodyLanguage model FoxedUp or BRILLIANT.MOD
:root
   order TX TY TZ RX RY RZ
   axis XYZ
   position 0 0 0  
   orientation 0 0 0 
:bonedata
  begin
     id 1 
     name lhipjoint
     direction 0.547975 -0.797114 0.253638 
     length 2.36201 
     axis 0 0 0  XYZ
  end
  begin
     id 2 
     name lfemur
     direction 0.34202 -0.939693 0  
     length 7.69075  
     axis 0 0 20  XYZ
    dof rx ry rz
    limits (-160.0 20.0)
           (-70.0 70.0)
           (-60.0 70.0)
  end
  begin
     id 3 
     name ltibia
     direction 0.34202 -0.939693 0   
     length 7.91399   
     axis 0 0 20   XYZ
    dof rx
    limits (-10.0 170.0)
  end
  begin
     id 4 
     name lfoot
     direction 0.0705293 -0.193778 0.978507   
     length 2.13618   
     axis -90 7.62852e-016 20   XYZ
    dof rx rz
    limits (-45.0 90.0)
           (-70.0 20.0)
  end
  begin
     id 5 
     name ltoes
     direction 1.53592e-011 -4.21925e-011 1   
     length 1.07518   
     axis -90 7.62852e-016 20   XYZ
    dof rx
    limits (-90.0 20.0)
  end
  begin
     id 6 
     name rhipjoint
     direction -0.57 -0.782963 0.249136   
     length 2.4047  
     axis 0 0 0  XYZ 
  end
  begin
     id 7 
     name rfemur
     direction -0.34202 -0.939693 0   
     length 7.51486   
     axis 0 0 -20   XYZ
    dof rx ry rz
    limits (-160.0 20.0)
           (-70.0 70.0)
           (-70.0 60.0)
  end
  begin
     id 8 
     name rtibia
     direction -0.34202 -0.939693 0   
     length 8.08317   
     axis 0 0 -20   XYZ
    dof rx
    limits (-10.0 170.0)
 end
 begin
     id 9 
     name rfoot
     direction -0.104954 -0.281256 0.953876   
     length 2.30343  
     axis -90 -7.62852e-016 -20   XYZ
    dof rx rz
    limits (-45.0 90.0)
           (-20.0 70.0)
  end
  begin
     id 10 
     name rtoes
     direction -1.53556e-011 -4.21922e-011 1   
     length 1.14803   
     axis -90 -7.62852e-016 -20   XYZ
    dof rx
    limits (-90.0 20.0)
  end
  begin
     id 11 
     name lowerback
     direction -0.0152855 0.99353 -0.11254   
     length 2.05311   
     axis 0 0 0   XYZ
    dof rx ry rz
    limits (-20.0 45.0)
           (-30.0 30.0)
           (-30.0 30.0)
  end
  begin
     id 12 
     name upperback
     direction -0.00157509 0.999443 -0.033332   
     length 2.06353   
     axis 0 0 0   XYZ
    dof rx ry rz
    limits (-20.0 45.0)
           (-30.0 30.0)
           (-30.0 30.0)
  end
  begin
     id 13 
     name thorax
     direction 0.00577788 0.999804 0.0189484   
     length 2.08472   
     axis 0 0 0   XYZ
    dof rx ry rz
    limits (-20.0 45.0)
           (-30.0 30.0)
           (-30.0 30.0)
  end
  begin
     id 14 
     name lowerneck
     direction -1.09301e-005 0.994719 0.10264   
     length 1.76249   
     axis 0 0 0   XYZ
    dof rx ry rz
    limits (-20.0 45.0)
           (-30.0 30.0)
           (-30.0 30.0)
  end
  begin
     id 15 
     name upperneck
     direction 0.0495018 0.988526 -0.142706   
     length 1.77897   
     axis 0 0 0   XYZ
    dof rx ry rz
    limits (-20.0 45.0)
           (-30.0 30.0)
           (-30.0 30.0)
  end
  begin
     id 16
     name head
     direction 0.0142736 0.998114 -0.0597101  
     length 1.78934  
     axis 0 0 0   XYZ
    dof rx ry rz
    limits (-20.0 45.0)
           (-30.0 30.0)
           (-30.0 30.0)
  end
  begin
     id 17 
     name lclavicle
     direction 0.918111 0.396107 -0.0130883  
     length 3.37276  
     axis 0 0 0   XYZ
    dof ry rz
    limits (-20.0 10.0)
           (0.0 20.0)
  end
  begin
     id 18 
     name lhumerus
     direction 1 -4.48975e-011 -3.26108e-027   
     length 5.34298   
     axis 180 -30 -90   XYZ
    dof rx ry rz
    limits (-60.0 90.0)
           (-90.0 90.0)
           (-90.0 90.0)
  end
  begin
     id 19
     name lradius
     direction 1 -4.48964e-011 -8.84413e-028   
     length 3.67262   
     axis 180 -30 -90   XYZ
    dof rx
    limits (-10.0 170.0)
  end
  begin
     id 20
     name lwrist
     direction 1 -4.48991e-011 -1.24264e-027   
     length 1.83631   
     axis -2.17013e-015 90 90   XYZ
    dof ry
    limits (-180.0 0.0)
 end
  begin
     id 21 
     name lhand
     direction 1 -4.48855e-011 -2.48528e-027   
     length 0.599298   
     axis 1.58582e-015 90 90   XYZ
    dof rx rz
    limits (-90.0 90.0)
           (-45.0 45.0)
  end
  begin
     id 22 
     name lfingers
     direction 1 -4.48811e-011 -4.97056e-027   
     length 0.48317   
     axis 3.17164e-015 90 90   XYZ
    dof rx
    limits (0.0 90.0)
  end
  begin
     id 23
     name lthumb
     direction 0.707107 -6.34882e-011 0.707107   
     length 0.693738   
     axis -90 45 2.85299e-015   XYZ
    dof rx rz
    limits (-45.0 45.0)
           (-45.0 45.0)
  end
  begin
     id 24 
     name rclavicle
     direction -0.920511 0.384752 -0.0680135   
     length 3.43787  
     axis 0 0 0   XYZ 
    dof ry rz
    limits (-10.0 20.0)
           (-20.0 0.0)
  end
  begin
     id 25 
     name rhumerus
     direction -0.999976 -0.00330524 0.00603274  
     length 5.5498   
     axis 180 30 90   XYZ
    dof rx ry rz
    limits (-90.0 60.0)
           (-90.0 90.0)
           (-90.0 90.0)
  end
  begin
     id 26 
     name rradius
     direction -1 -4.48967e-011 8.62438e-027   
     length 3.69401   
     axis 180 30 90   XYZ
    dof rx
    limits (-10.0 170.0)
  end
  begin
     id 27 
     name rwrist
     direction -1 -4.4897e-011 9.54866e-027   
     length 1.84701   
     axis -7.69462e-015 -90 -90   XYZ
    dof ry
    limits (-180.0 0.0)
  end
  begin
     id 28
     name rhand
     direction -1 -4.48982e-011 1.90973e-026   
     length 0.638113   
     axis -1.21857e-014 -90 -90   XYZ
    dof rx rz
    limits (-90.0 90.0)
           (-45.0 45.0)
  end
  begin
     id 29
     name rfingers
     direction -1 -4.48936e-011 3.81946e-026   
     length 0.514463   
     axis -2.43714e-014 -90 -90   XYZ
    dof rx
    limits (0.0 90.0)
  end
  begin
     id 30
     name rthumb
     direction -0.707107 -6.34942e-011 0.707107   
     length 0.738669   
     axis -90 -45 -2.85299e-015   XYZ
    dof rx rz
    limits (-45.0 45.0)
           (-45.0 45.0)
  end
:hierarchy
  begin
    root lhipjoint rhipjoint lowerback
    lhipjoint lfemur
    lfemur ltibia
    ltibia lfoot
    lfoot ltoes
    rhipjoint rfemur
    rfemur rtibia
    rtibia rfoot
    rfoot rtoes
    lowerback upperback
    upperback thorax
    thorax lowerneck lclavicle rclavicle
    lowerneck upperneck
    upperneck head
    lclavicle lhumerus
    lhumerus lradius
    lradius lwrist
    lwrist lhand lthumb
    lhand lfingers
    rclavicle rhumerus
    rhumerus rradius
    rradius rwrist
    rwrist rhand rthumb
    rhand rfingers
  end

#!OML:ASF F:\twosubjects\two\Thursday\Session 1\Rory.ASF
:FULLY-SPECIFIED
:DEGREES
161
root 0.035705 18.5862 6.87094 4.24468 13.5081 4.40676
lowerback 2.64517 4.53028 -7.47763
upperback 2.08139 5.90156 -2.65843
thorax 0.207858 2.89781 1.25144
lowerneck 6.39286 21.6646 12.632
upperneck 6.58718 31.3284 -17.9035
head 5.81293 15.5886 -5.11354
rclavicle 1.25234e-014 1.70955e-014
rhumerus -40.7315 -19.6342 -73.2838
rradius 32.9024
rwrist 20.9581
rhand -16.4031 25.6011
rfingers 7.12502
rthumb 9.81123 -4.15034
lclavicle 1.25234e-014 1.70955e-014
lhumerus -28.2849 20.5403 76.2512
lradius 20.1456
lwrist -29.4432
lhand -11.4839 34.2742
lfingers 7.12502
lthumb 14.5543 63.7436
rfemur -20.0823 -1.19308 10.5779
rtibia 62.2778
rfoot -4.17675 -7.94131
rtoes -4.81701
lfemur -9.01705 -3.6745 -27.0062
ltibia 20.4992
lfoot -11.7208 -6.61011
ltoes 4.46193
162
root 0.0733186 18.5576 7.0001 4.48207 13.6193 4.6744
lowerback 2.55269 4.41766 -7.62598
upperback 2.02351 5.75518 -2.72623
thorax 0.203867 2.82513 1.27397
lowerneck 6.27783 21.7768 12.9813
upperneck 6.87646 31.5645 -17.9931
head 6.0276 15.6873 -5.09308
rclavicle -4.03533e-014 3.97569e-015
rhumerus -40.764 -19.5293 -73.3774
rradius 32.9466
rwrist 20.857
rhand -15.9012 25.2202
rfingers 7.12502
rthumb 10.2954 -4.50783
lclavicle -4.03533e-014 3.97569e-015
lhumerus -28.0922 20.2098 76.3235
lradius 19.9633
lwrist -28.9984
lhand -11.473 34.9372
lfingers 7.12502
lthumb 14.5648 64.4059
rfemur -21.165 -1.4799 10.3508
rtibia 61.9366
rfoot -5.38161 -8.22079
rtoes -4.94725
lfemur -8.99996 -3.14237 -27.3518
ltibia 21.1082
lfoot -12.3547 -7.16034
ltoes 5.22393
163
root 0.0893528 18.5444 7.11496 4.37998 13.5224 3.97156
lowerback 2.87455 4.48338 -6.97515
upperback 1.88819 5.81394 -2.5269
thorax -0.0804779 2.86942 1.08821
lowerneck 6.4108 21.7661 13.2411
upperneck 6.73195 31.5902 -18.2471
head 6.04971 15.7131 -5.19517
rclavicle 3.40916e-014 9.93923e-015
rhumerus -40.9684 -19.8045 -73.2224
rradius 33.1292
rwrist 20.9096
rhand -15.9156 25.0108
rfingers 7.12502
rthumb 10.2816 -4.71786
lclavicle 3.40916e-014 9.93923e-015
lhumerus -27.807 18.9907 76.7165
lradius 19.6661
lwrist -27.8155
lhand -12.3226 35.0377
lfingers 7.12502
lthumb 13.7461 64.5636
rfemur -22.17 -1.09331 11.4426
rtibia 61.3472
rfoot -6.45036 -9.19408
rtoes -6.33738
lfemur -8.96257 -2.5348 -26.5744
ltibia 21.6266
lfoot -13.0491 -7.42128
ltoes 4.09761
164
root 0.0851616 18.5309 7.19649 4.44177 13.2976 3.22041
lowerback 3.62144 4.64098 -6.41134
upperback 1.55895 5.94988 -2.29917
thorax -0.816641 2.963 0.924957
lowerneck 6.6035 21.8481 12.8113
upperneck 6.22315 31.5636 -18.0226
head 5.74994 15.7307 -5.15885
rclavicle -2.75317e-014 5.96354e-015
rhumerus -41.0851 -19.4047 -73.3242
rradius 33.3401
rwrist 20.0816
rhand -16.2727 24.5886
rfingers 7.12502
rthumb 9.93708 -5.1569
lclavicle -2.75317e-014 5.96354e-015
lhumerus -27.0392 20.0854 76.391
lradius 17.9429
lwrist -28.9677
lhand -13.1364 34.2177
lfingers 7.12502
lthumb 12.9617 63.7951
rfemur -23.6103 -0.37106 12.6764
rtibia 60.6746
rfoot -7.11114 -10.5351
rtoes -7.75994
lfemur -9.31705 -2.11858 -25.6616
ltibia 22.1163
lfoot -13.4035 -7.42306
ltoes 4.06092
165
root 0.13539 18.525 7.36492 4.63236 13.7791 3.74904
lowerback 3.30661 4.4921 -6.60871
upperback 1.6116 5.77747 -2.49553
thorax -0.574009 2.87075 0.872106
lowerneck 6.48178 21.9048 12.6629
upperneck 6.17219 31.5646 -17.6913
head 5.67245 15.7293 -5.05123
rclavicle -9.98893e-014 1.78906e-014
rhumerus -41.1352 -18.9607 -73.6513
rradius 33.4018
rwrist 19.1851
rhand -16.7072 24.4537
rfingers 7.12502
rthumb 9.51788 -5.31135
lclavicle -9.98893e-014 1.78906e-014
lhumerus -27.6342 17.6863 77.1009
lradius 20.0755
lwrist -26.4522
lhand -12.2687 35.0775
lfingers 7.12502
lthumb 13.798 64.5999
rfemur -23.9633 -1.0784 12.0991
rtibia 59.733
rfoot -8.31757 -10.7102
rtoes -8.07493
lfemur -8.7734 -1.93204 -26.2825
ltibia 22.2442
lfoot -13.7703 -7.99964
ltoes 5.63279
166
root 0.199188 18.5162 7.51906 4.50048 14.1511 4.41463
lowerback 3.46519 4.34872 -6.7164
upperback 1.75943 5.5787 -2.77176
thorax -0.478779 2.76802 0.654049
lowerneck 6.30703 21.8726 13.0538
upperneck 6.41438 31.5862 -17.7726
head 5.85271 15.7235 -5.06209
rclavicle -7.95139e-016 1.23246e-014
rhumerus -41.2515 -19.4247 -73.6184
rradius 33.3535
rwrist 19.4854
rhand -17.142 24.8925
rfingers 7.12502
rthumb 9.09831 -4.89122
lclavicle -7.95139e-016 1.23246e-014
lhumerus -28.1457 16.7667 77.2036
lradius 21.5293
lwrist -25.6154
lhand -11.5205 35.1944
lfingers 7.12502
lthumb 14.5191 64.6664
rfemur -23.9298 -1.79635 11.2515
rtibia 58.6587
rfoot -9.64644 -10.6026
rtoes -7.86972
lfemur -7.68336 -1.74827 -27.1524
ltibia 22.1
lfoot -14.0737 -8.3591
ltoes 6.6122
167
root 0.22239 18.5081 7.67597 4.55337 14.1824 4.89901
lowerback 3.37723 4.32902 -7.3813
upperback 1.85655 5.54682 -2.78444
thorax -0.385839 2.74417 1.01527
lowerneck 6.34255 21.8341 13.3253
upperneck 6.4386 31.5921 -18.0053
head 5.93813 15.7279 -5.14269
rclavicle 8.34896e-015 2.26615e-014
rhumerus -41.3379 -19.8796 -73.3728
rradius 33.4653
rwrist 19.9696
rhand -17.4349 25.1196
rfingers 7.12502
rthumb 8.81566 -4.67627
lclavicle 8.34896e-015 2.26615e-014
lhumerus -28.336 15.7139 77.6178
lradius 22.5038
lwrist -24.6896
lhand -11.3627 35.0156
lfingers 7.12502
lthumb 14.6711 64.4765
rfemur -24.4027 -1.79984 10.8787
rtibia 57.4597
rfoot -10.6139 -11.1033
rtoes -8.28786
lfemur -6.81946 -1.59952 -27.6645
ltibia 21.6166
lfoot -14.0378 -8.47165
ltoes 7.52182
168
root 0.245074 18.5018 7.81577 4.71594 14.2452 4.80769
lowerback 3.34986 4.3579 -7.28324
upperback 1.78436 5.58605 -2.76115
thorax -0.441713 2.76706 0.982366
lowerneck 6.39362 21.7592 13.4916
upperneck 6.34005 31.5027 -18.1216
head 5.93087 15.6925 -5.21087
rclavicle 1.37161e-014 -3.49861e-014
rhumerus -41.5924 -20.3084 -73.1773
rradius 33.7373
rwrist 20.1624
rhand -17.3609 25.2638
rfingers 7.12502
rthumb 8.88713 -4.52908
lclavicle 1.37161e-014 -3.49861e-014
lhumerus -28.3603 14.1746 78.1617
lradius 23.2441
lwrist -23.3862
lhand -11.8419 34.9513
lfingers 7.12502
lthumb 14.2094 64.4453
rfemur -25.2249 -1.76935 11.1295
rtibia 56.1815
rfoot -11.2605 -11.563
rtoes -8.86367
lfemur -6.28546 -1.95172 -27.5752
ltibia 21.1389
lfoot -14.0409 -8.07761
ltoes 6.90856
169
root 0.272394 18.4991 7.95334 4.91337 14.25 4.86048
lowerback 3.30742 4.31916 -7.27554
upperback 1.74375 5.53642 -2.80669
thorax -0.451409 2.74361 0.935923
lowerneck 6.45832 21.7881 13.3458
upperneck 5.91534 31.4718 -18.2021
head 5.77405 15.6942 -5.25317
rclavicle 9.28324e-014 -1.51076e-014
rhumerus -41.5434 -20.446 -73.2404
rradius 33.7332
rwrist 20.0685
rhand -17.3073 25.2629
rfingers 7.12502
rthumb 8.93879 -4.5277
lclavicle 9.28324e-014 -1.51076e-014
lhumerus -28.5125 13.6353 78.3359
lradius 24.1232
lwrist -22.7688
lhand -12.4235 34.4273
lfingers 7.12502
lthumb 13.6489 63.9598
rfemur -25.9601 -1.55528 11.1873
rtibia 54.7326
rfoot -11.7725 -12.0342
rtoes -10.4516
lfemur -5.90479 -2.20414 -27.6691
ltibia 20.9879
lfoot -14.4867 -7.52884
ltoes 6.04888
